<?xml version="1.0" standalone="no"?>
<!DOCTYPE svg PUBLIC "-//W3C//DTD SVG 20010904//EN"
 "http://www.w3.org/TR/2001/REC-SVG-20010904/DTD/svg10.dtd">
<svg version="1.0" xmlns="http://www.w3.org/2000/svg"
 width="60.000000pt" height="60.000000pt" viewBox="0 0 60.000000 60.000000"
 preserveAspectRatio="xMidYMid meet">

<g transform="translate(0.000000,60.000000) scale(0.100000,-0.100000)"
fill="#000000" stroke="none">
<path d="M159 471 c-41 -41 -41 -101 0 -142 41 -40 91 -40 132 0 62 62 20 171
-66 171 -27 0 -44 -8 -66 -29z"/>
<path d="M504 376 c-27 -31 -53 -56 -58 -56 -6 0 -20 10 -33 22 -22 21 -24 21
-40 5 -16 -16 -15 -20 27 -62 50 -51 43 -54 130 45 58 65 59 68 41 84 -18 16
-21 15 -67 -38z"/>
<path d="M149 241 c-77 -25 -119 -63 -119 -108 l0 -33 195 0 195 0 0 33 c0 37
-23 63 -80 92 -39 20 -151 29 -191 16z"/>
</g>
</svg>
