<?xml version="1.0" standalone="no"?>
<!DOCTYPE svg PUBLIC "-//W3C//DTD SVG 20010904//EN"
 "http://www.w3.org/TR/2001/REC-SVG-20010904/DTD/svg10.dtd">
<svg version="1.0" xmlns="http://www.w3.org/2000/svg"
 width="60.000000pt" height="60.000000pt" viewBox="0 0 60.000000 60.000000"
 preserveAspectRatio="xMidYMid meet">

<g transform="translate(0.000000,60.000000) scale(0.100000,-0.100000)"
fill="#000000" stroke="none">
<path d="M229 491 c-40 -41 -40 -91 0 -132 62 -62 171 -20 171 66 0 53 -44 95
-100 95 -33 0 -48 -6 -71 -29z"/>
<path d="M378 279 c-43 -22 -78 -81 -78 -129 0 -50 35 -107 80 -130 50 -25 90
-25 140 0 45 23 80 80 80 130 0 50 -35 107 -80 130 -49 25 -94 25 -142 -1z
m102 -79 c3 -17 12 -25 25 -25 15 0 20 -7 20 -25 0 -18 -5 -25 -20 -25 -13 0
-22 -8 -25 -25 -4 -19 -12 -25 -30 -25 -18 0 -26 6 -30 25 -3 17 -12 25 -25
25 -15 0 -20 7 -20 25 0 19 5 25 23 24 16 0 22 5 22 21 0 28 9 37 35 33 12 -2
22 -13 25 -28z"/>
<path d="M205 235 c-27 -8 -53 -14 -57 -15 -3 0 -20 -12 -37 -26 -26 -22 -31
-33 -31 -72 l0 -47 88 3 88 3 0 57 c-1 31 2 69 7 85 8 31 9 30 -58 12z"/>
</g>
</svg>
