<?xml version="1.0" standalone="no"?>
<svg version="1.0" xmlns="http://www.w3.org/2000/svg"
 width="60.000000pt" height="60.000000pt" viewBox="0 0 60.000000 60.000000"
 preserveAspectRatio="xMidYMid meet">

<g transform="translate(0.000000,60.000000) scale(0.100000,-0.100000)"
 stroke="none">
<path d="M232 540 c-42 -26 -72 -76 -72 -122 0 -35 -2 -38 -28 -38 -15 0 -33
-5 -40 -12 -17 -17 -17 -279 0 -296 17 -17 399 -17 416 0 17 17 17 279 0 296
-8 8 -58 12 -160 12 l-148 0 0 30 c0 61 44 110 100 110 33 0 75 -26 88 -54 13
-30 42 -35 42 -7 0 10 -9 30 -21 45 -44 57 -118 72 -177 36z"/>
</g>
</svg>
