<?xml version="1.0" standalone="no"?>
<svg version="1.0" xmlns="http://www.w3.org/2000/svg"
 width="60.000000pt" height="60.000000pt" viewBox="0 0 60.000000 60.000000"
 preserveAspectRatio="xMidYMid meet">

<g transform="translate(0.000000,60.000000) scale(0.100000,-0.100000)"
stroke="none">
<path d="M285 569 c-11 -4 -67 -53 -125 -108 l-105 -101 250 0 250 0 -100 95
c-113 108 -141 126 -170 114z"/>
<path d="M504 277 c-44 -39 -98 -89 -119 -109 -32 -32 -45 -38 -79 -38 -38 0
-49 7 -121 75 -96 91 -147 135 -158 135 -4 0 -6 -71 -5 -157 l3 -158 278 -3
c221 -2 279 0 283 11 2 7 3 81 2 165 l-3 152 -81 -73z"/>
</g>
</svg>
