<svg width="189" height="200" viewBox="0 0 189 200" fill="none" xmlns="http://www.w3.org/2000/svg">
<g clip-path="url(#clip0_12_108)">
<path fill-rule="evenodd" clip-rule="evenodd" d="M0 0H12L97.5099 97.0293L66.9389 97.9639L29.1217 54.8695L23 48V199V199.615V200H0V0ZM130 126C135 125 139.707 122.177 146.25 118.457C156.211 112.728 163.568 105.046 168.32 95.4102C173.138 85.7747 175.547 75.0651 175.547 63.2813C175.547 51.4974 173.138 40.8203 168.32 31.25C163.503 21.6797 156.081 14.0951 146.055 8.4961C138.944 4.4528 130.374 1.8527 120 0C117 0 115 0 112.971 0H107.578H81.7432H51H49.3559H23.0971L42 22C42 22 42.5567 22 43 22H115C122.02 22.5441 128.086 24.2461 132.969 26.9531C139.544 30.5339 144.297 35.4818 147.227 41.7969C150.221 48.112 151.719 55.2734 151.719 63.2813C151.719 71.2891 150.221 78.4831 147.227 84.8633C144.297 91.1784 139.577 96.1914 133.066 99.9023C126.556 103.613 117.93 105.469 107.188 105.469H102.948L40.5311 106.558C40.3447 106.562 40.1657 106.531 40 106.471V200H64.2188V126.953H92.3783H100.5L115 127C112 127 119 127 123 127H125L130 126ZM101.195 137L156.142 199.615H155.994L156.356 200H188.256L132.735 137H101.195Z" fill="black"/>
</g>
<defs>
<clipPath id="clip0_12_108">
<rect width="189" height="200" fill="white"/>
</clipPath>
</defs>
</svg>
